
<svg width="883" height="208" viewBox="0 0 883 208" fill="none" xmlns="http://www.w3.org/2000/svg">
<path d="M94.057 0H230.217L207.822 41.456H71.663L94.057 0Z" fill="#084D3E"/>
<path d="M70.767 165.827H185.427L163.033 207.283H48.372L70.767 165.827Z" fill="#084D3E"/>
<path d="M49.872 82.912H230.218L208.116 124.368H27.77L49.872 82.912Z" fill="#084D3E"/>
<path d="M22.395 41.457L71.663 41.456L49.268 82.913H0L22.395 41.457Z" fill="#084D3E"/>
<path d="M207.822 124.369H251.715L229.321 165.826L185.427 165.827L207.822 124.369Z" fill="#084D3E"/>
<path d="M393.836 123.5V150.53L374.6 161.64H331.485V147.213H377.751V126.817H350.721L331.485 115.706V89.837L350.721 78.727H392.178V93.154H347.57V112.39H374.6L393.836 123.5ZM490.867 151.359L471.631 162.469H439.626L420.39 151.359V89.008L439.626 77.898H471.631L490.867 89.008V151.359ZM436.475 92.325V148.043H474.781V92.325H436.475ZM536.628 161.64L517.392 150.53V40.587H533.478V147.213H553.377V161.64H536.628ZM582.792 127.646V148.043H616.123V127.646H582.792ZM585.942 162.469L566.706 151.359V124.329L585.942 113.219H616.123V93.154H574.998V78.727H612.972L632.208 89.837V162.469H627.897L616.123 155.671L604.349 162.469H585.942ZM666.394 194.806L680.821 157.826L648.817 78.727H664.902L688.449 137.761H688.781L712.163 78.727H728.248L682.148 194.806H666.394ZM810.258 147.213V161.64H763.992L744.757 150.53V89.008L763.992 77.898H791.022L810.258 89.008V125.822H760.842V147.213H810.258ZM760.842 92.325V111.395H794.173V92.325H760.842ZM883.002 93.154H852.822V161.64H836.742V78.727H848.842L852.822 85.526L864.602 78.727H883.002V93.154Z" fill="#084D3E"/>
</svg>
