<svg width="884" height="209" viewBox="0 0 884 209" fill="none" xmlns="http://www.w3.org/2000/svg">
<path d="M94.635 0.929993H230.795L208.4 42.386H72.241L94.635 0.929993Z" fill="white"/>
<path d="M71.345 166.757H186.005L163.611 208.213H48.95L71.345 166.757Z" fill="white"/>
<path d="M50.45 83.842H230.796L208.694 125.298H28.348L50.45 83.842Z" fill="white"/>
<path d="M22.973 42.387L72.241 42.386L49.846 83.843H0.578003L22.973 42.387Z" fill="white"/>
<path d="M208.4 125.299H252.293L229.899 166.756L186.005 166.757L208.4 125.299Z" fill="white"/>
<path d="M394.414 124.43V151.46L375.178 162.57H332.063V148.143H378.329V127.747H351.299L332.063 116.636V90.767L351.299 79.657H392.756V94.084H348.148V113.32H375.178L394.414 124.43ZM491.445 152.289L472.209 163.399H440.204L420.968 152.289V89.938L440.204 78.828H472.209L491.445 89.938V152.289ZM437.053 93.255V148.973H475.359V93.255H437.053ZM537.206 162.57L517.97 151.46V41.517H534.056V148.143H553.955V162.57H537.206ZM583.37 128.576V148.973H616.701V128.576H583.37ZM586.52 163.399L567.284 152.289V125.259L586.52 114.149H616.701V94.084H575.576V79.657H613.55L632.786 90.767V163.399H628.475L616.701 156.601L604.927 163.399H586.52ZM666.972 195.736L681.399 158.756L649.395 79.657H665.48L689.027 138.691H689.359L712.741 79.657H728.826L682.726 195.736H666.972ZM810.836 148.143V162.57H764.57L745.335 151.46V89.938L764.57 78.828H791.6L810.836 89.938V126.752H761.42V148.143H810.836ZM761.42 93.255V112.325H794.751V93.255H761.42ZM883.58 94.084H853.4V162.57H837.32V79.657H849.42L853.4 86.456L865.18 79.657H883.58V94.084Z" fill="white"/>
</svg>
